<?xml version="1.0" encoding="UTF-8"?>
<svg xmlns="http://www.w3.org/2000/svg" width="860" height="520" viewBox="0 0 860 520">
<rect x="0" y="0" width="860" height="520" fill="#ffffff" />
<rect x="50" y="50" width="760" height="420" fill="#ffffff" stroke="#000" />
<clipPath id="dbclip-50-50-760-420"><path d="M50 50 L810 50 L810 470 L50 470 Z" /></clipPath>
<g clip-path="url(#dbclip-50-50-760-420)">
<rect x="84.55" y="417.93" width="153.54" height="32.98" fill="#7c3aed" stroke="#000000" />
<rect x="468.38" y="69.09" width="153.54" height="381.82" fill="#7c3aed" stroke="#000000" />
<rect x="238.08" y="384.95" width="153.54" height="65.96" fill="#f43f5e" stroke="#000000" />
<rect x="621.92" y="69.09" width="153.54" height="381.82" fill="#f43f5e" stroke="#000000" />
</g>
<line class="axhline" x1="50.00" y1="338.57" x2="810.00" y2="338.57" stroke="#991b1b" stroke-width="2" stroke-dasharray="4,3" />
<line class="x-tick" x1="84.55" y1="470.00" x2="84.55" y2="475.00" stroke="#000" />
<text class="tick-label tick-label-x" x="84.55" y="477.00" text-anchor="middle" dominant-baseline="hanging" font-size="10" fill="#000">0.6</text>
<line class="x-tick" x1="161.31" y1="470.00" x2="161.31" y2="475.00" stroke="#000" />
<text class="tick-label tick-label-x" x="161.31" y="477.00" text-anchor="middle" dominant-baseline="hanging" font-size="10" fill="#000">0.8</text>
<line class="x-tick" x1="238.08" y1="470.00" x2="238.08" y2="475.00" stroke="#000" />
<text class="tick-label tick-label-x" x="238.08" y="477.00" text-anchor="middle" dominant-baseline="hanging" font-size="10" fill="#000">1</text>
<line class="x-tick" x1="314.85" y1="470.00" x2="314.85" y2="475.00" stroke="#000" />
<text class="tick-label tick-label-x" x="314.85" y="477.00" text-anchor="middle" dominant-baseline="hanging" font-size="10" fill="#000">1.2</text>
<line class="x-tick" x1="391.62" y1="470.00" x2="391.62" y2="475.00" stroke="#000" />
<text class="tick-label tick-label-x" x="391.62" y="477.00" text-anchor="middle" dominant-baseline="hanging" font-size="10" fill="#000">1.4</text>
<line class="x-tick" x1="468.38" y1="470.00" x2="468.38" y2="475.00" stroke="#000" />
<text class="tick-label tick-label-x" x="468.38" y="477.00" text-anchor="middle" dominant-baseline="hanging" font-size="10" fill="#000">1.6</text>
<line class="x-tick" x1="545.15" y1="470.00" x2="545.15" y2="475.00" stroke="#000" />
<text class="tick-label tick-label-x" x="545.15" y="477.00" text-anchor="middle" dominant-baseline="hanging" font-size="10" fill="#000">1.8</text>
<line class="x-tick" x1="621.92" y1="470.00" x2="621.92" y2="475.00" stroke="#000" />
<text class="tick-label tick-label-x" x="621.92" y="477.00" text-anchor="middle" dominant-baseline="hanging" font-size="10" fill="#000">2</text>
<line class="x-tick" x1="698.69" y1="470.00" x2="698.69" y2="475.00" stroke="#000" />
<text class="tick-label tick-label-x" x="698.69" y="477.00" text-anchor="middle" dominant-baseline="hanging" font-size="10" fill="#000">2.2</text>
<line class="x-tick" x1="775.45" y1="470.00" x2="775.45" y2="475.00" stroke="#000" />
<text class="tick-label tick-label-x" x="775.45" y="477.00" text-anchor="middle" dominant-baseline="hanging" font-size="10" fill="#000">2.4</text>
<line class="y-tick" x1="50.00" y1="450.91" x2="45.00" y2="450.91" stroke="#000" />
<text class="tick-label tick-label-y" x="43.00" y="450.91" text-anchor="end" dominant-baseline="middle" font-size="10" fill="#000">0</text>
<line class="y-tick" x1="50.00" y1="394.74" x2="45.00" y2="394.74" stroke="#000" />
<text class="tick-label tick-label-y" x="43.00" y="394.74" text-anchor="end" dominant-baseline="middle" font-size="10" fill="#000">0.025</text>
<line class="y-tick" x1="50.00" y1="338.57" x2="45.00" y2="338.57" stroke="#000" />
<text class="tick-label tick-label-y" x="43.00" y="338.57" text-anchor="end" dominant-baseline="middle" font-size="10" fill="#000">0.05</text>
<line class="y-tick" x1="50.00" y1="282.39" x2="45.00" y2="282.39" stroke="#000" />
<text class="tick-label tick-label-y" x="43.00" y="282.39" text-anchor="end" dominant-baseline="middle" font-size="10" fill="#000">0.075</text>
<line class="y-tick" x1="50.00" y1="226.22" x2="45.00" y2="226.22" stroke="#000" />
<text class="tick-label tick-label-y" x="43.00" y="226.22" text-anchor="end" dominant-baseline="middle" font-size="10" fill="#000">0.1</text>
<line class="y-tick" x1="50.00" y1="170.05" x2="45.00" y2="170.05" stroke="#000" />
<text class="tick-label tick-label-y" x="43.00" y="170.05" text-anchor="end" dominant-baseline="middle" font-size="10" fill="#000">0.125</text>
<line class="y-tick" x1="50.00" y1="113.88" x2="45.00" y2="113.88" stroke="#000" />
<text class="tick-label tick-label-y" x="43.00" y="113.88" text-anchor="end" dominant-baseline="middle" font-size="10" fill="#000">0.15</text>
<line class="y-tick" x1="50.00" y1="57.71" x2="45.00" y2="57.71" stroke="#000" />
<text class="tick-label tick-label-y" x="43.00" y="57.71" text-anchor="end" dominant-baseline="middle" font-size="10" fill="#000">0.175</text>
<g class="legend">
<rect class="legend-box" x="631.00" y="56.00" width="173.00" height="60.00" fill="#ffffff" stroke="#000000" />
<rect class="legend-swatch" x="637.00" y="64.50" width="11.00" height="11.00" fill="#7c3aed" stroke="#000" />
<text class="legend-label" x="654.00" y="70.00" text-anchor="start" dominant-baseline="middle" font-size="12" fill="#000">raw revenue p-values</text>
<rect class="legend-swatch" x="637.00" y="80.50" width="11.00" height="11.00" fill="#f43f5e" stroke="#000" />
<text class="legend-label" x="654.00" y="86.00" text-anchor="start" dominant-baseline="middle" font-size="12" fill="#000">BH corrected</text>
<line class="legend-line" x1="637.00" y1="102.00" x2="648.00" y2="102.00" stroke="#991b1b" stroke-width="2" />
<text class="legend-label" x="654.00" y="102.00" text-anchor="start" dominant-baseline="middle" font-size="12" fill="#000">alpha = 0.05</text>
</g>
</svg>