<?xml version="1.0" encoding="UTF-8"?>
<svg xmlns="http://www.w3.org/2000/svg" width="640" height="480" viewBox="0 0 640 480">
<rect x="0" y="0" width="640" height="480" fill="#ffffff" />
<rect x="50" y="50" width="540" height="380" fill="#ffffff" stroke="#000" />
<clipPath id="dbclip-50-50-540-380"><path d="M50 50 L590 50 L590 430 L50 430 Z" /></clipPath>
<g clip-path="url(#dbclip-50-50-540-380)">
<circle cx="397.88" cy="189.48" r="8" fill="#1f77b4" />
<circle cx="478.01" cy="123.45" r="8" fill="#1f77b4" />
<circle cx="459.65" cy="143.60" r="8" fill="#1f77b4" />
<circle cx="301.71" cy="260.66" r="8" fill="#1f77b4" />
<circle cx="432.21" cy="168.33" r="8" fill="#1f77b4" />
<circle cx="243.63" cy="287.18" r="8" fill="#1f77b4" />
<circle cx="332.19" cy="225.29" r="8" fill="#1f77b4" />
<circle cx="469.35" cy="139.28" r="8" fill="#1f77b4" />
<circle cx="267.70" cy="282.47" r="8" fill="#1f77b4" />
<circle cx="299.79" cy="259.66" r="8" fill="#1f77b4" />
<circle cx="455.20" cy="150.79" r="8" fill="#1f77b4" />
<circle cx="313.86" cy="241.27" r="8" fill="#1f77b4" />
<circle cx="269.93" cy="276.84" r="8" fill="#1f77b4" />
<circle cx="192.32" cy="328.20" r="8" fill="#1f77b4" />
<circle cx="254.47" cy="292.32" r="8" fill="#1f77b4" />
<circle cx="401.17" cy="182.48" r="8" fill="#1f77b4" />
<circle cx="519.49" cy="108.13" r="8" fill="#1f77b4" />
<circle cx="338.45" cy="223.48" r="8" fill="#1f77b4" />
<circle cx="449.59" cy="155.11" r="8" fill="#1f77b4" />
<circle cx="246.30" cy="287.79" r="8" fill="#1f77b4" />
<circle cx="485.38" cy="115.60" r="8" fill="#1f77b4" />
<circle cx="316.32" cy="253.87" r="8" fill="#1f77b4" />
<circle cx="427.24" cy="168.00" r="8" fill="#1f77b4" />
<circle cx="223.51" cy="305.46" r="8" fill="#1f77b4" />
<circle cx="565.45" cy="67.27" r="8" fill="#1f77b4" />
<circle cx="266.53" cy="276.99" r="8" fill="#1f77b4" />
<circle cx="486.10" cy="120.97" r="8" fill="#1f77b4" />
<circle cx="272.32" cy="276.67" r="8" fill="#1f77b4" />
<circle cx="559.50" cy="75.93" r="8" fill="#1f77b4" />
<circle cx="413.92" cy="179.32" r="8" fill="#1f77b4" />
<circle cx="377.27" cy="194.00" r="8" fill="#1f77b4" />
<circle cx="303.64" cy="246.81" r="8" fill="#1f77b4" />
<circle cx="407.15" cy="183.76" r="8" fill="#1f77b4" />
<circle cx="236.12" cy="304.14" r="8" fill="#1f77b4" />
<circle cx="312.76" cy="250.91" r="8" fill="#1f77b4" />
<circle cx="454.44" cy="135.50" r="8" fill="#1f77b4" />
<circle cx="222.14" cy="307.24" r="8" fill="#1f77b4" />
<circle cx="527.18" cy="96.81" r="8" fill="#1f77b4" />
<circle cx="302.77" cy="252.28" r="8" fill="#1f77b4" />
<circle cx="447.54" cy="155.12" r="8" fill="#1f77b4" />
<polyline fill="none" stroke="#ff0000" stroke-width="2" points="74.55,412.73 75.47,412.08 76.39,411.43" />
</g>
<line class="x-tick" x1="74.55" y1="430.00" x2="74.55" y2="435.00" stroke="#000" />
<text class="tick-label tick-label-x" x="74.55" y="437.00" text-anchor="middle" dominant-baseline="hanging" font-size="10" fill="#000">0</text>
<line class="x-tick" x1="259.18" y1="430.00" x2="259.18" y2="435.00" stroke="#000" />
<text class="tick-label tick-label-x" x="259.18" y="437.00" text-anchor="middle" dominant-baseline="hanging" font-size="10" fill="#000">200</text>
<line class="x-tick" x1="443.82" y1="430.00" x2="443.82" y2="435.00" stroke="#000" />
<text class="tick-label tick-label-x" x="443.82" y="437.00" text-anchor="middle" dominant-baseline="hanging" font-size="10" fill="#000">400</text>
<line class="y-tick" x1="50.00" y1="412.73" x2="45.00" y2="412.73" stroke="#000" />
<text class="tick-label tick-label-y" x="43.00" y="412.73" text-anchor="end" dominant-baseline="middle" font-size="10" fill="#000">0</text>
<line class="y-tick" x1="50.00" y1="282.68" x2="45.00" y2="282.68" stroke="#000" />
<text class="tick-label tick-label-y" x="43.00" y="282.68" text-anchor="end" dominant-baseline="middle" font-size="10" fill="#000">200</text>
<line class="y-tick" x1="50.00" y1="152.63" x2="45.00" y2="152.63" stroke="#000" />
<text class="tick-label tick-label-y" x="43.00" y="152.63" text-anchor="end" dominant-baseline="middle" font-size="10" fill="#000">400</text>
<text x="320" y="40" text-anchor="middle" font-size="14" font-weight="bold" fill="#000">Predictions vs Actual Values</text>
<text x="320" y="465" text-anchor="middle" font-size="12" fill="#000">Actual</text>
<text x="15" y="240" text-anchor="middle" font-size="12" fill="#000" transform="rotate(-90 15 240)">Predicted</text>
</svg>