<?xml version="1.0" encoding="UTF-8"?>
<svg xmlns="http://www.w3.org/2000/svg" width="640" height="480" viewBox="0 0 640 480">
<rect x="0" y="0" width="640" height="480" fill="#ffffff" />
<rect x="50" y="50" width="540" height="380" fill="#ffffff" stroke="#000" />
<clipPath id="dbclip-50-50-540-380"><path d="M50 50 L590 50 L590 430 L50 430 Z" /></clipPath>
<g clip-path="url(#dbclip-50-50-540-380)">
<circle cx="446.44" cy="147.31" r="8" fill="#1f77b4" />
<circle cx="74.55" cy="409.27" r="8" fill="#1f77b4" />
<circle cx="318.11" cy="229.91" r="8" fill="#1f77b4" />
<circle cx="107.86" cy="385.26" r="8" fill="#1f77b4" />
<circle cx="223.39" cy="316.62" r="8" fill="#1f77b4" />
<circle cx="366.87" cy="213.03" r="8" fill="#1f77b4" />
<circle cx="102.69" cy="398.15" r="8" fill="#1f77b4" />
<circle cx="463.29" cy="131.64" r="8" fill="#1f77b4" />
<circle cx="331.18" cy="233.95" r="8" fill="#1f77b4" />
<circle cx="489.88" cy="129.12" r="8" fill="#1f77b4" />
<circle cx="474.29" cy="129.12" r="8" fill="#1f77b4" />
<circle cx="114.06" cy="369.77" r="8" fill="#1f77b4" />
<circle cx="110.66" cy="394.34" r="8" fill="#1f77b4" />
<circle cx="175.94" cy="342.57" r="8" fill="#1f77b4" />
<circle cx="100.68" cy="381.97" r="8" fill="#1f77b4" />
<circle cx="389.88" cy="186.12" r="8" fill="#1f77b4" />
<circle cx="345.64" cy="224.82" r="8" fill="#1f77b4" />
<circle cx="213.73" cy="320.63" r="8" fill="#1f77b4" />
<circle cx="307.81" cy="250.40" r="8" fill="#1f77b4" />
<circle cx="247.59" cy="280.97" r="8" fill="#1f77b4" />
<circle cx="139.46" cy="363.87" r="8" fill="#1f77b4" />
<circle cx="201.14" cy="309.06" r="8" fill="#1f77b4" />
<circle cx="478.91" cy="125.99" r="8" fill="#1f77b4" />
<circle cx="397.59" cy="174.58" r="8" fill="#1f77b4" />
<circle cx="341.13" cy="223.29" r="8" fill="#1f77b4" />
<circle cx="543.45" cy="83.22" r="8" fill="#1f77b4" />
<circle cx="115.63" cy="371.23" r="8" fill="#1f77b4" />
<circle cx="540.81" cy="95.26" r="8" fill="#1f77b4" />
<circle cx="548.68" cy="67.27" r="8" fill="#1f77b4" />
<circle cx="432.25" cy="169.69" r="8" fill="#1f77b4" />
<circle cx="224.78" cy="302.07" r="8" fill="#1f77b4" />
<circle cx="358.21" cy="204.92" r="8" fill="#1f77b4" />
<circle cx="347.82" cy="210.90" r="8" fill="#1f77b4" />
<circle cx="343.32" cy="220.46" r="8" fill="#1f77b4" />
<circle cx="97.85" cy="393.27" r="8" fill="#1f77b4" />
<circle cx="348.65" cy="216.62" r="8" fill="#1f77b4" />
<circle cx="556.82" cy="83.98" r="8" fill="#1f77b4" />
<circle cx="183.41" cy="339.46" r="8" fill="#1f77b4" />
<circle cx="273.39" cy="266.04" r="8" fill="#1f77b4" />
<circle cx="277.33" cy="263.54" r="8" fill="#1f77b4" />
<polyline fill="none" stroke="#ff0000" stroke-width="2" points="74.55,412.73 565.45,67.27" />
</g>
<line class="x-tick" x1="165.53" y1="430.00" x2="165.53" y2="435.00" stroke="#000" />
<text class="tick-label tick-label-x" x="165.53" y="437.00" text-anchor="middle" dominant-baseline="hanging" font-size="10" fill="#000">200</text>
<line class="x-tick" x1="291.15" y1="430.00" x2="291.15" y2="435.00" stroke="#000" />
<text class="tick-label tick-label-x" x="291.15" y="437.00" text-anchor="middle" dominant-baseline="hanging" font-size="10" fill="#000">300</text>
<line class="x-tick" x1="416.77" y1="430.00" x2="416.77" y2="435.00" stroke="#000" />
<text class="tick-label tick-label-x" x="416.77" y="437.00" text-anchor="middle" dominant-baseline="hanging" font-size="10" fill="#000">400</text>
<line class="x-tick" x1="542.39" y1="430.00" x2="542.39" y2="435.00" stroke="#000" />
<text class="tick-label tick-label-x" x="542.39" y="437.00" text-anchor="middle" dominant-baseline="hanging" font-size="10" fill="#000">500</text>
<line class="y-tick" x1="50.00" y1="348.70" x2="45.00" y2="348.70" stroke="#000" />
<text class="tick-label tick-label-y" x="43.00" y="348.70" text-anchor="end" dominant-baseline="middle" font-size="10" fill="#000">200</text>
<line class="y-tick" x1="50.00" y1="260.30" x2="45.00" y2="260.30" stroke="#000" />
<text class="tick-label tick-label-y" x="43.00" y="260.30" text-anchor="end" dominant-baseline="middle" font-size="10" fill="#000">300</text>
<line class="y-tick" x1="50.00" y1="171.90" x2="45.00" y2="171.90" stroke="#000" />
<text class="tick-label tick-label-y" x="43.00" y="171.90" text-anchor="end" dominant-baseline="middle" font-size="10" fill="#000">400</text>
<line class="y-tick" x1="50.00" y1="83.50" x2="45.00" y2="83.50" stroke="#000" />
<text class="tick-label tick-label-y" x="43.00" y="83.50" text-anchor="end" dominant-baseline="middle" font-size="10" fill="#000">500</text>
<text x="320" y="40" text-anchor="middle" font-size="14" font-weight="bold" fill="#000">Predictions vs Actual Values</text>
<text x="320" y="465" text-anchor="middle" font-size="12" fill="#000">Actual</text>
<text x="15" y="240" text-anchor="middle" font-size="12" fill="#000" transform="rotate(-90 15 240)">Predicted</text>
</svg>