<?xml version="1.0" encoding="UTF-8"?>
<svg xmlns="http://www.w3.org/2000/svg" width="640" height="480" viewBox="0 0 640 480">
<rect x="0" y="0" width="640" height="480" fill="#ffffff" />
<rect x="50" y="50" width="540" height="380" fill="#ffffff" stroke="#000" />
<clipPath id="dbclip-50-50-540-380"><path d="M50 50 L590 50 L590 430 L50 430 Z" /></clipPath>
<g clip-path="url(#dbclip-50-50-540-380)">
<rect x="74.55" y="297.58" width="163.64" height="115.15" fill="rgb(253,231,37)" shape-rendering="crispEdges" />
<rect x="238.18" y="297.58" width="163.64" height="115.15" fill="rgb(238,229,28)" shape-rendering="crispEdges" />
<rect x="401.82" y="297.58" width="163.64" height="115.15" fill="rgb(229,228,26)" shape-rendering="crispEdges" />
<rect x="74.55" y="182.42" width="163.64" height="115.15" fill="rgb(238,229,28)" shape-rendering="crispEdges" />
<rect x="238.18" y="182.42" width="163.64" height="115.15" fill="rgb(253,231,37)" shape-rendering="crispEdges" />
<rect x="401.82" y="182.42" width="163.64" height="115.15" fill="rgb(250,231,35)" shape-rendering="crispEdges" />
<rect x="74.55" y="67.27" width="163.64" height="115.15" fill="rgb(229,228,26)" shape-rendering="crispEdges" />
<rect x="238.18" y="67.27" width="163.64" height="115.15" fill="rgb(250,231,35)" shape-rendering="crispEdges" />
<rect x="401.82" y="67.27" width="163.64" height="115.15" fill="rgb(253,231,37)" shape-rendering="crispEdges" />
</g>
<line class="x-tick" x1="74.55" y1="430.00" x2="74.55" y2="435.00" stroke="#000" />
<text class="tick-label tick-label-x" x="74.55" y="437.00" text-anchor="middle" dominant-baseline="hanging" font-size="10" fill="#000">0</text>
<line class="x-tick" x1="238.18" y1="430.00" x2="238.18" y2="435.00" stroke="#000" />
<text class="tick-label tick-label-x" x="238.18" y="437.00" text-anchor="middle" dominant-baseline="hanging" font-size="10" fill="#000">1</text>
<line class="x-tick" x1="401.82" y1="430.00" x2="401.82" y2="435.00" stroke="#000" />
<text class="tick-label tick-label-x" x="401.82" y="437.00" text-anchor="middle" dominant-baseline="hanging" font-size="10" fill="#000">2</text>
<line class="x-tick" x1="565.45" y1="430.00" x2="565.45" y2="435.00" stroke="#000" />
<text class="tick-label tick-label-x" x="565.45" y="437.00" text-anchor="middle" dominant-baseline="hanging" font-size="10" fill="#000">3</text>
<line class="y-tick" x1="50.00" y1="412.73" x2="45.00" y2="412.73" stroke="#000" />
<text class="tick-label tick-label-y" x="43.00" y="412.73" text-anchor="end" dominant-baseline="middle" font-size="10" fill="#000">0</text>
<line class="y-tick" x1="50.00" y1="297.58" x2="45.00" y2="297.58" stroke="#000" />
<text class="tick-label tick-label-y" x="43.00" y="297.58" text-anchor="end" dominant-baseline="middle" font-size="10" fill="#000">1</text>
<line class="y-tick" x1="50.00" y1="182.42" x2="45.00" y2="182.42" stroke="#000" />
<text class="tick-label tick-label-y" x="43.00" y="182.42" text-anchor="end" dominant-baseline="middle" font-size="10" fill="#000">2</text>
<line class="y-tick" x1="50.00" y1="67.27" x2="45.00" y2="67.27" stroke="#000" />
<text class="tick-label tick-label-y" x="43.00" y="67.27" text-anchor="end" dominant-baseline="middle" font-size="10" fill="#000">3</text>
<text x="320" y="40" text-anchor="middle" font-size="14" font-weight="bold" fill="#000">Correlation Matrix</text>
</svg>